<?xml version="1.0" encoding="UTF-8"?>
<!-- Generator: visioncortex VTracer 0.6.3 -->
<svg version="1.1" xmlns="http://www.w3.org/2000/svg" width="1280" height="1280">
<path d="M0 0 C422.4 0 844.8 0 1280 0 C1280 422.4 1280 844.8 1280 1280 C857.6 1280 435.2 1280 0 1280 C0 857.6 0 435.2 0 0 Z " fill="#F9FCFE" transform="translate(0,0)"/>
<path d="M0 0 C3.62 0.01 7.23 0 10.85 -0.01 C53.56 -0.04 53.56 -0.04 63.45 3.26 C65.76 3.53 68.07 3.78 70.39 4.01 C78.68 4.91 86.87 6.3 95.07 7.76 C96.28 7.97 97.49 8.19 98.74 8.41 C104.42 9.44 109.92 10.6 115.45 12.26 C117.01 12.54 118.57 12.79 120.14 13.01 C127.22 14.25 134 16.44 140.86 18.56 C144.71 19.74 148.57 20.87 152.45 21.96 C164.09 25.25 175.35 28.92 186.55 33.5 C190.8 35.21 195.13 36.73 199.45 38.26 C199.45 38.92 199.45 39.58 199.45 40.26 C200.19 40.22 200.93 40.18 201.69 40.14 C204.67 40.27 206.06 40.83 208.64 42.26 C213.44 44.8 218.34 46.98 223.32 49.14 C229.81 51.97 235.87 55.07 241.93 58.74 C246.25 61.35 250.79 63.48 255.36 65.62 C260.75 68.21 265.26 70.69 269.62 74.76 C272.66 77.25 276.14 78.87 279.61 80.69 C284.14 83.19 288.25 86.24 292.45 89.26 C293.48 89.94 294.51 90.62 295.57 91.32 C298.58 93.35 301.47 95.49 304.36 97.68 C305.78 98.75 307.2 99.82 308.63 100.87 C309.69 101.65 309.69 101.65 310.76 102.45 C311.4 102.92 312.03 103.38 312.69 103.87 C314.45 105.26 314.45 105.26 315.92 106.78 C318.25 109.03 321.01 110.46 323.81 112.08 C324.35 112.47 324.89 112.86 325.45 113.26 C325.45 113.92 325.45 114.58 325.45 115.26 C326.32 115.63 326.32 115.63 327.2 116.01 C329.78 117.44 331.51 119.04 333.45 121.26 C333.45 121.92 333.45 122.58 333.45 123.26 C334.32 123.67 334.32 123.67 335.2 124.08 C340.56 126.89 345.33 130.86 349.45 135.26 C350.19 136 350.93 136.75 351.7 137.51 C362.45 148.26 362.45 148.26 364.08 149.89 C365.13 150.94 366.19 151.98 367.26 153.01 C370.94 156.79 374.35 160.79 377.51 165.01 C379.35 167.39 379.35 167.39 382.01 168.76 C384.94 170.56 385.76 172.3 387.45 175.26 C388.19 175.98 388.93 176.7 389.7 177.45 C392.1 179.9 393.85 182.19 395.76 185.01 C398.75 189.4 402.03 193.29 405.65 197.16 C407.57 199.4 408.95 201.72 410.45 204.26 C412.27 206.64 414.14 208.95 416.02 211.27 C417.45 213.26 417.45 213.26 417.45 215.26 C418.11 215.26 418.77 215.26 419.45 215.26 C419.78 215.86 420.1 216.47 420.44 217.09 C421.09 218.29 421.09 218.29 421.76 219.51 C422.19 220.3 422.62 221.09 423.06 221.9 C424.4 224.29 424.4 224.29 426.12 226.43 C427.45 228.26 427.45 228.26 427.45 230.26 C428.11 230.26 428.77 230.26 429.45 230.26 C431.13 232.84 432.68 235.4 434.2 238.07 C434.65 238.85 435.1 239.64 435.57 240.44 C438.96 246.33 442.25 252.26 445.45 258.26 C446.08 259.42 446.7 260.58 447.34 261.77 C456.18 278.19 464.08 294.86 471.11 312.12 C471.89 313.96 472.7 315.78 473.55 317.58 C476.97 324.86 479.6 332.25 482.07 339.89 C482.65 341.63 482.65 341.63 483.23 343.41 C483.97 345.67 484.71 347.94 485.45 350.2 C486.3 352.8 487.17 355.4 488.04 357.99 C492.6 371.65 496.06 385.39 498.59 399.56 C499.24 403.23 500.04 406.83 500.95 410.45 C503.49 421.26 504.98 432.27 506.45 443.26 C506.61 444.39 506.76 445.52 506.92 446.69 C512.13 486.54 511.94 529.46 506.45 569.26 C506.17 571.4 505.9 573.54 505.62 575.68 C503.89 588.59 503.89 588.59 502.91 592.32 C502.34 594.39 502.34 594.39 502.49 597.1 C502.45 600.62 501.79 603.48 500.89 606.89 C500.52 608.29 500.16 609.69 499.79 611.09 C499.58 611.89 499.38 612.69 499.16 613.51 C497.39 620.38 495.71 627.27 494 634.15 C488.84 654.83 488.84 654.83 486.32 660.64 C484.94 663.85 484.13 666.83 483.45 670.26 C483 671.15 482.54 672.03 482.07 672.95 C480.77 675.61 479.93 677.82 479.14 680.64 C477.77 685.39 476.13 690.01 474.39 694.64 C474.13 695.33 473.87 696.02 473.61 696.73 C472.37 700 471.07 703.17 469.45 706.26 C469.16 706.98 468.87 707.7 468.57 708.45 C465.63 715.81 462.15 722.77 458.38 729.73 C456.16 733.86 454.16 738.01 452.32 742.32 C450.92 745.44 449.2 748.33 447.45 751.26 C446.79 751.26 446.13 751.26 445.45 751.26 C445.34 751.97 445.24 752.67 445.13 753.4 C444.37 756.62 443.15 759.11 441.57 762.01 C441.06 762.97 440.55 763.94 440.02 764.93 C438.45 767.26 438.45 767.26 435.45 768.26 C435.26 769.34 435.26 769.34 435.07 770.45 C434.46 773.22 433.57 775.66 432.45 778.26 C431.79 777.93 431.13 777.6 430.45 777.26 C430.06 778.08 429.68 778.9 429.28 779.75 C428.5 781.36 428.5 781.36 427.7 783.01 C426.93 784.61 426.93 784.61 426.15 786.25 C424.51 789.15 422.85 790.99 420.45 793.26 C419.77 794.65 419.77 794.65 419.07 796.07 C417.41 799.34 415.53 801.58 413.11 804.29 C411.28 806.46 409.72 808.72 408.14 811.07 C404.94 815.74 401.35 819.83 397.47 823.94 C395.39 826.19 395.39 826.19 393.93 828.8 C392.36 831.4 390.62 833.15 388.45 835.26 C387 837.04 385.56 838.83 384.14 840.64 C381.04 844.47 377.99 847.67 374.15 850.71 C371.31 853.3 369.17 856.4 366.93 859.5 C366.2 860.37 366.2 860.37 365.45 861.26 C364.79 861.26 364.13 861.26 363.45 861.26 C363.12 862.25 362.79 863.24 362.45 864.26 C361.79 864.26 361.13 864.26 360.45 864.26 C360.45 864.92 360.45 865.58 360.45 866.26 C358.88 867.81 358.88 867.81 356.76 869.57 C354.45 871.54 352.23 873.48 350.07 875.64 C339.78 885.93 339.78 885.93 334.14 889.51 C331.36 891.19 331.36 891.19 329.07 893.64 C326.92 895.79 324.89 897.48 322.45 899.26 C320.11 900.97 318.17 902.55 316.14 904.64 C312.86 907.84 309.28 910.36 305.54 913.01 C303.4 914.57 301.31 916.14 299.23 917.79 C293.37 922.43 287.56 926.52 280.89 929.96 C277.5 931.77 274.54 933.97 271.45 936.26 C269.79 937.27 268.12 938.27 266.45 939.26 C265.64 939.76 264.82 940.25 263.99 940.76 C263.17 941.26 262.35 941.75 261.51 942.26 C260.7 942.76 259.89 943.25 259.05 943.76 C256.23 945.39 253.36 946.82 250.45 948.26 C248.22 949.44 245.99 950.63 243.76 951.82 C242.44 952.53 241.11 953.23 239.79 953.94 C236.76 955.56 233.73 957.19 230.7 958.83 C222.76 963.11 214.95 967.12 206.44 970.18 C203.31 971.31 200.26 972.58 197.2 973.89 C192.92 975.7 188.64 977.26 184.19 978.58 C182.23 979.21 182.23 979.21 180.45 981.26 C179.62 981.36 178.8 981.47 177.95 981.57 C174.63 982.23 172.64 983.12 169.7 984.7 C165.51 986.88 161.87 987.91 157.24 988.68 C153.93 989.37 150.88 990.45 147.7 991.57 C138.63 994.75 129.3 996.69 119.92 998.72 C116.76 999.41 113.6 1000.15 110.45 1000.89 C108.45 1001.35 106.45 1001.8 104.45 1002.26 C103.41 1002.5 102.38 1002.73 101.31 1002.98 C92.93 1004.84 84.58 1006.22 76.07 1007.32 C74.91 1007.48 73.74 1007.64 72.54 1007.81 C51.4 1010.61 30.41 1011.59 9.1 1011.52 C5.7 1011.51 2.3 1011.52 -1.1 1011.53 C-22.96 1011.59 -44.61 1010.6 -66.24 1007.32 C-67.41 1007.15 -68.59 1006.98 -69.8 1006.8 C-76.84 1005.74 -83.8 1004.52 -90.74 1002.91 C-93.52 1002.27 -96.3 1001.75 -99.11 1001.26 C-117.62 997.97 -137.45 993.64 -154.81 986.39 C-164.83 982.26 -175.04 978.69 -185.34 975.34 C-191.03 973.43 -196.27 970.96 -201.61 968.26 C-202.32 967.9 -203.03 967.55 -203.76 967.18 C-209.14 964.47 -209.14 964.47 -211.71 963.14 C-214.05 962.02 -216.45 961.09 -218.86 960.14 C-226.38 957.04 -233.44 953.18 -240.55 949.26 C-240.55 948.6 -240.55 947.94 -240.55 947.26 C-241.56 947.01 -242.58 946.75 -243.62 946.49 C-252.81 943.86 -261.36 937.59 -269.05 932.05 C-275.32 927.56 -281.67 923.19 -288.49 919.57 C-292.17 917.6 -294.59 915.22 -297.55 912.26 C-299.37 911.09 -301.2 909.94 -303.05 908.82 C-306.35 906.79 -308.49 905.33 -310.99 902.32 C-313.65 899.14 -316.08 897.48 -319.55 895.26 C-324.23 892.25 -327.22 889.64 -330.55 885.26 C-333.6 882.4 -336.85 879.8 -340.18 877.26 C-342.48 875.32 -344.23 873.23 -346.11 870.89 C-349.52 867.02 -353.66 863.82 -357.63 860.54 C-361.78 857.05 -365.04 853.52 -368.18 849.11 C-370.07 846.56 -372.26 844.44 -374.55 842.26 C-382 835.02 -388.63 827.74 -393.85 818.71 C-395.76 815.95 -397.93 814.34 -400.55 812.26 C-402.15 810.06 -402.15 810.06 -403.61 807.57 C-406.68 802.56 -409.99 797.78 -413.43 793.01 C-418.14 786.42 -422.43 779.69 -426.52 772.7 C-428.4 769.52 -430.35 766.42 -432.36 763.32 C-434.64 759.78 -436.66 756.25 -438.47 752.46 C-439.84 749.68 -441.32 746.98 -442.8 744.26 C-446.9 736.68 -450.77 729 -454.55 721.26 C-454.86 720.63 -455.17 720 -455.49 719.35 C-459.54 711.02 -463.05 702.6 -466.22 693.9 C-467.28 690.99 -468.38 688.12 -469.55 685.26 C-473.66 675.08 -477.61 664.85 -480.55 654.26 C-480.83 653.3 -481.12 652.34 -481.41 651.35 C-483.1 645.42 -484.55 639.43 -486.05 633.45 C-486.51 631.62 -486.51 631.62 -486.98 629.75 C-489 621.7 -490.97 613.68 -492.05 605.45 C-492.53 602.41 -493.39 600.09 -494.55 597.26 C-495.49 592.28 -496.09 587.26 -496.71 582.23 C-496.81 581.37 -496.92 580.5 -497.03 579.61 C-497.26 577.78 -497.48 575.95 -497.71 574.11 C-498.05 571.36 -498.39 568.61 -498.73 565.86 C-501.18 546.15 -501.79 526.74 -501.8 506.89 C-501.8 505.57 -501.8 504.26 -501.8 502.9 C-501.8 475.43 -500.09 448.89 -495.03 421.83 C-494.54 419.2 -494.07 416.57 -493.6 413.94 C-490.85 398.81 -487.49 383.76 -483.86 368.82 C-483.67 368.02 -483.48 367.22 -483.29 366.39 C-482.23 362.15 -480.85 359.01 -478.55 355.26 C-477.97 353.16 -477.48 351.03 -477.05 348.89 C-476.22 344.73 -475.12 341.07 -473.38 337.2 C-471.38 332.52 -469.87 327.64 -468.24 322.82 C-464.92 313.16 -460.56 304.15 -455.92 295.07 C-449.36 283.04 -449.36 283.04 -445.17 270.17 C-444.55 268.26 -444.55 268.26 -442.74 266.48 C-439.87 263.58 -438.31 260.38 -436.49 256.76 C-434.41 252.68 -432.4 248.87 -429.55 245.26 C-429.14 244.42 -428.73 243.57 -428.3 242.7 C-426.21 238.6 -423.77 234.81 -421.27 230.94 C-420.12 229.15 -419.02 227.33 -417.96 225.48 C-416.55 223.26 -416.55 223.26 -414.55 222.26 C-413.99 221.05 -413.99 221.05 -413.43 219.82 C-411.44 215.58 -408.37 212.2 -405.39 208.63 C-403.76 206.53 -402.73 204.62 -401.55 202.26 C-400.44 200.92 -399.29 199.6 -398.11 198.32 C-395.52 195.45 -393.49 192.62 -391.55 189.26 C-390.89 188.93 -390.23 188.6 -389.55 188.26 C-389.13 187.54 -388.71 186.83 -388.28 186.09 C-386.16 182.63 -383.6 179.93 -380.8 177.01 C-376.6 172.55 -372.69 168.01 -368.99 163.11 C-367.04 160.61 -364.85 158.45 -362.55 156.26 C-361.38 155.1 -360.21 153.93 -359.05 152.76 C-358.45 152.16 -357.85 151.56 -357.23 150.95 C-355.85 149.56 -354.48 148.16 -353.11 146.76 C-350.98 144.68 -348.81 142.75 -346.55 140.82 C-344.1 138.71 -342.17 136.79 -340.11 134.26 C-337.29 130.96 -334.26 128.58 -330.8 125.97 C-328.86 124.5 -327.01 122.98 -325.18 121.39 C-321.23 117.96 -317.17 114.67 -313.12 111.36 C-307.94 107.14 -307.94 107.14 -302.88 102.77 C-298.98 99.3 -295.15 96.73 -290.55 94.26 C-287.11 92.33 -287.11 92.33 -284.11 89.82 C-282.35 88.06 -280.41 86.76 -278.32 85.41 C-277.09 84.61 -275.86 83.79 -274.65 82.95 C-269.47 79.4 -264.11 76.24 -258.64 73.16 C-255.5 71.38 -252.4 69.58 -249.36 67.64 C-241.65 62.74 -233.47 58.66 -225.28 54.66 C-222.54 53.3 -222.54 53.3 -220 51.71 C-217.6 50.29 -215.27 49.22 -212.68 48.2 C-211.81 47.86 -210.95 47.52 -210.06 47.17 C-207.88 46.38 -205.74 45.76 -203.49 45.2 C-202.03 44.73 -202.03 44.73 -200.55 44.26 C-200.22 43.27 -199.89 42.28 -199.55 41.26 C-199.55 41.92 -199.55 42.58 -199.55 43.26 C-194.22 40.68 -194.22 40.68 -189.11 37.7 C-186.21 36.07 -183.37 35.14 -180.21 34.14 C-177.11 33.12 -174.09 31.95 -171.05 30.76 C-166.7 29.07 -162.36 27.5 -157.92 26.08 C-153.9 24.69 -149.98 23.06 -146.05 21.44 C-142.55 20.26 -139.17 19.55 -135.55 18.87 C-131.98 18.14 -128.45 17.28 -124.93 16.39 C-124.25 16.21 -123.57 16.04 -122.87 15.87 C-120.76 15.33 -118.66 14.8 -116.55 14.26 C-107.92 12.06 -99.31 9.89 -90.55 8.26 C-89.52 8.05 -88.49 7.85 -87.43 7.64 C-83.76 7.16 -80.24 7.2 -76.55 7.26 C-76.22 6.27 -75.89 5.28 -75.55 4.26 C-75.55 4.92 -75.55 5.58 -75.55 6.26 C-75 6.13 -74.45 6 -73.88 5.86 C-66.98 4.25 -60.16 3.47 -53.11 2.8 C-49.57 2.46 -46.03 2.1 -42.5 1.73 C-28.32 0.32 -14.25 -0.05 0 0 Z " fill="#000002" transform="translate(628.550048828125,143.7392578125)"/>
<path d="M0 0 C3.03 -0.28 5.85 -0.37 8.88 -0.33 C10.28 -0.33 10.28 -0.33 11.71 -0.33 C14.85 -0.32 17.98 -0.29 21.12 -0.26 C23.37 -0.26 25.61 -0.25 27.85 -0.24 C33.96 -0.22 40.07 -0.18 46.18 -0.14 C52.56 -0.09 58.93 -0.07 65.31 -0.04 C76.03 0.01 86.74 0.08 97.45 0.15 C108.48 0.22 119.52 0.28 130.55 0.33 C131.23 0.34 131.91 0.34 132.61 0.34 C133.97 0.35 135.34 0.36 136.71 0.36 C137.39 0.36 138.06 0.37 138.76 0.37 C139.43 0.37 140.1 0.38 140.8 0.38 C151.93 0.43 163.07 0.5 174.2 0.56 C178.01 0.58 181.82 0.6 185.62 0.62 C191.6 0.65 197.58 0.69 203.55 0.73 C205.75 0.74 207.95 0.75 210.15 0.76 C213.14 0.78 216.13 0.8 219.12 0.82 C220.44 0.83 220.44 0.83 221.78 0.83 C227.77 0.89 227.77 0.89 230 2 C230.01 3.26 230.02 4.52 230.03 5.82 C230.07 10.55 230.13 15.29 230.21 20.03 C230.24 22.07 230.26 24.11 230.27 26.15 C229.67 45.68 229.67 45.68 237.5 62.7 C238.32 63.46 239.15 64.22 240 65 C244 69.65 244 69.65 244 72 C244.84 72.37 244.84 72.37 245.69 72.75 C248 74 248 74 250.29 75.91 C259.14 82.72 271.91 86.01 283 85 C293.79 83.49 304.26 80.78 312.18 72.8 C314 71 314 71 316 71 C316.23 70.3 316.45 69.6 316.69 68.88 C318 66 318 66 320.38 63.44 C327.34 55.52 328.13 43.38 328.32 33.32 C328.34 32.4 328.36 31.47 328.38 30.52 C328.44 27.58 328.5 24.63 328.56 21.69 C328.61 19.69 328.65 17.69 328.69 15.69 C328.8 10.79 328.9 5.9 329 1 C332.04 -0.01 333.99 -0.1 337.17 -0.05 C338.75 -0.03 338.75 -0.03 340.37 -0.01 C341.51 0.01 342.65 0.03 343.82 0.05 C345 0.07 346.17 0.09 347.39 0.11 C349.88 0.15 352.37 0.19 354.86 0.24 C358.65 0.31 362.45 0.37 366.25 0.42 C368.67 0.46 371.09 0.51 373.51 0.55 C375.21 0.57 375.21 0.57 376.94 0.6 C385.54 0.78 392.61 2.32 400.69 5.38 C401.76 5.77 402.84 6.17 403.95 6.59 C407.09 8.04 409.37 9.77 412 12 C413.39 12.8 413.39 12.8 414.81 13.62 C419.44 17.07 422.59 21.39 426 26 C426.83 27.1 426.83 27.1 427.67 28.23 C434.95 38.51 439.33 50.42 439.25 63.05 C439.26 64.21 439.26 64.21 439.26 65.4 C439.27 67.98 439.27 70.56 439.26 73.15 C439.26 75.02 439.27 76.9 439.27 78.77 C439.28 83.92 439.28 89.06 439.28 94.21 C439.27 99.76 439.28 105.31 439.29 110.86 C439.3 121.73 439.3 132.6 439.3 143.48 C439.3 152.32 439.3 161.16 439.31 170 C439.31 171.25 439.31 172.51 439.31 173.81 C439.31 176.36 439.31 178.92 439.31 181.47 C439.32 198.64 439.32 215.8 439.32 232.96 C439.32 233.63 439.32 234.3 439.32 234.99 C439.32 238.39 439.32 241.79 439.32 245.19 C439.32 245.87 439.32 246.54 439.32 247.24 C439.32 248.6 439.32 249.97 439.32 251.34 C439.31 272.58 439.32 293.82 439.34 315.06 C439.36 338.94 439.37 362.82 439.36 386.69 C439.36 399.33 439.36 411.97 439.38 424.61 C439.39 435.37 439.39 446.13 439.38 456.89 C439.37 462.38 439.37 467.86 439.38 473.35 C439.4 478.38 439.39 483.41 439.38 488.44 C439.38 490.25 439.38 492.07 439.39 493.88 C439.44 507.24 439.15 519.8 431 531 C430.55 531.8 430.09 532.61 429.62 533.44 C426.19 538.86 422.47 544.48 417 548 C416.34 548 415.68 548 415 548 C415 548.99 415 549.98 415 551 C414.07 551.43 413.14 551.87 412.19 552.31 C409.11 553.72 409.11 553.72 407.59 555.48 C405.64 557.34 403.83 558.09 401.31 559.06 C400.5 559.38 399.7 559.7 398.86 560.04 C391.87 562.39 385.79 563.29 378.45 563.25 C377.52 563.25 376.58 563.26 375.62 563.26 C372.49 563.27 369.36 563.26 366.23 563.25 C363.96 563.26 361.69 563.26 359.42 563.26 C353.19 563.27 346.95 563.27 340.72 563.26 C334.69 563.26 328.65 563.26 322.62 563.27 C309.52 563.28 296.42 563.28 283.32 563.27 C271.86 563.27 260.4 563.27 248.93 563.27 C248.17 563.27 247.41 563.27 246.63 563.27 C243.54 563.27 240.45 563.27 237.36 563.27 C208.4 563.28 179.44 563.27 150.48 563.26 C124.75 563.25 99.03 563.25 73.3 563.26 C44.39 563.27 15.49 563.28 -13.42 563.27 C-16.5 563.27 -19.58 563.27 -22.66 563.27 C-23.42 563.27 -24.18 563.27 -24.96 563.27 C-36.42 563.26 -47.87 563.27 -59.33 563.27 C-72.36 563.28 -85.39 563.28 -98.41 563.27 C-105.06 563.26 -111.71 563.26 -118.36 563.27 C-124.44 563.27 -130.53 563.27 -136.62 563.26 C-138.82 563.26 -141.02 563.26 -143.22 563.26 C-146.22 563.27 -149.21 563.26 -152.2 563.25 C-153.48 563.26 -153.48 563.26 -154.79 563.27 C-170.1 563.17 -183.74 557.44 -195 547 C-196.79 545.07 -198.37 543.08 -200 541 C-200.87 540.17 -201.73 539.35 -202.62 538.5 C-205.45 535.52 -208 532.26 -208 528 C-208.99 527.67 -209.98 527.34 -211 527 C-212.13 524.3 -212.13 524.3 -213.12 520.88 C-213.46 519.76 -213.79 518.64 -214.13 517.49 C-215.65 511.38 -216.15 505.45 -216.13 499.17 C-216.14 498.41 -216.14 497.65 -216.14 496.86 C-216.15 494.32 -216.15 491.77 -216.15 489.22 C-216.15 487.37 -216.15 485.53 -216.16 483.68 C-216.17 478.61 -216.17 473.53 -216.17 468.46 C-216.18 462.99 -216.19 457.52 -216.2 452.05 C-216.22 438.83 -216.23 425.62 -216.24 412.41 C-216.24 406.18 -216.25 399.95 -216.25 393.73 C-216.27 373.03 -216.28 352.33 -216.29 331.63 C-216.29 330.29 -216.29 328.95 -216.29 327.61 C-216.29 326.95 -216.29 326.29 -216.29 325.6 C-216.29 322.24 -216.29 318.88 -216.3 315.52 C-216.3 314.85 -216.3 314.18 -216.3 313.5 C-216.3 291.88 -216.33 270.26 -216.36 248.64 C-216.39 225.77 -216.41 202.89 -216.42 180.02 C-216.42 167.55 -216.43 155.09 -216.45 142.63 C-216.48 132.02 -216.48 121.4 -216.47 110.79 C-216.47 105.38 -216.47 99.97 -216.49 94.55 C-216.51 89.59 -216.51 84.63 -216.49 79.67 C-216.49 77.88 -216.49 76.09 -216.51 74.31 C-216.6 58.9 -215.25 41.39 -205 29 C-204.07 27.55 -204.07 27.55 -203.12 26.06 C-194.8 14.07 -183.37 7.71 -170 3 C-169.24 2.65 -168.47 2.3 -167.68 1.94 C-164.53 0.84 -162.01 0.75 -158.67 0.76 C-156.78 0.75 -156.78 0.75 -154.85 0.75 C-153.49 0.75 -152.13 0.76 -150.77 0.77 C-149.36 0.77 -147.96 0.77 -146.56 0.77 C-143.62 0.77 -140.69 0.78 -137.76 0.79 C-134 0.81 -130.23 0.82 -126.47 0.81 C-123.57 0.81 -120.68 0.82 -117.79 0.83 C-116.4 0.83 -115.01 0.83 -113.62 0.83 C-111.69 0.84 -109.75 0.84 -107.82 0.85 C-106.72 0.86 -105.61 0.86 -104.48 0.87 C-102 1 -102 1 -101 2 C-100.88 5.03 -100.81 8.05 -100.79 11.08 C-100.76 12.98 -100.73 14.89 -100.7 16.79 C-100.66 19.78 -100.63 22.78 -100.6 25.78 C-100.44 42.06 -100.24 55.2 -89 68 C-87.08 69.86 -85.15 71.39 -83 73 C-82.32 73.72 -81.64 74.44 -80.94 75.19 C-78.76 77.22 -76.81 78.06 -74 79 C-74 79.66 -74 80.32 -74 81 C-73.3 81.13 -72.61 81.27 -71.89 81.4 C-69.92 81.81 -67.97 82.26 -66.02 82.75 C-55.22 85.48 -46.79 85.43 -36 83 C-34 82.66 -32 82.32 -30 82 C-29.67 81.01 -29.34 80.02 -29 79 C-27.37 78.05 -25.74 77.1 -24.09 76.19 C-12.86 69.8 -7.53 60.56 -3.92 48.35 C-2.79 43.68 -2.69 39.14 -2.66 34.36 C-2.63 33.02 -2.63 33.02 -2.61 31.65 C-2.55 27.87 -2.51 24.09 -2.47 20.3 C-2.43 17.53 -2.39 14.75 -2.34 11.98 C-2.34 11.12 -2.33 10.27 -2.33 9.39 C-2.23 3.34 -2.23 3.34 0 0 Z " fill="#000002" transform="translate(521,408)"/>
<path d="M0 0 C3.03 -0.28 5.85 -0.37 8.88 -0.33 C10.28 -0.33 10.28 -0.33 11.71 -0.33 C14.85 -0.32 17.98 -0.29 21.12 -0.26 C23.37 -0.26 25.61 -0.25 27.85 -0.24 C33.96 -0.22 40.07 -0.18 46.18 -0.14 C52.56 -0.09 58.93 -0.07 65.31 -0.04 C76.03 0.01 86.74 0.08 97.45 0.15 C108.48 0.22 119.52 0.28 130.55 0.33 C131.23 0.34 131.91 0.34 132.61 0.34 C133.97 0.35 135.34 0.36 136.71 0.36 C137.39 0.36 138.06 0.37 138.76 0.37 C139.43 0.37 140.1 0.38 140.8 0.38 C151.93 0.43 163.07 0.5 174.2 0.56 C178.01 0.58 181.82 0.6 185.62 0.62 C191.6 0.65 197.58 0.69 203.55 0.73 C205.75 0.74 207.95 0.75 210.15 0.76 C213.14 0.78 216.13 0.8 219.12 0.82 C220.44 0.83 220.44 0.83 221.78 0.83 C227.77 0.89 227.77 0.89 230 2 C230.01 3.26 230.02 4.52 230.03 5.82 C230.07 10.55 230.13 15.29 230.21 20.03 C230.24 22.07 230.26 24.11 230.27 26.15 C229.67 45.68 229.67 45.68 237.5 62.7 C238.32 63.46 239.15 64.22 240 65 C244 69.65 244 69.65 244 72 C244.84 72.37 244.84 72.37 245.69 72.75 C248 74 248 74 250.29 75.91 C259.14 82.72 271.91 86.01 283 85 C293.79 83.49 304.26 80.78 312.18 72.8 C314 71 314 71 316 71 C316.23 70.3 316.45 69.6 316.69 68.88 C318 66 318 66 320.38 63.44 C327.34 55.52 328.13 43.38 328.32 33.32 C328.34 32.4 328.36 31.47 328.38 30.52 C328.44 27.58 328.5 24.63 328.56 21.69 C328.61 19.69 328.65 17.69 328.69 15.69 C328.8 10.79 328.9 5.9 329 1 C332.04 -0.01 333.99 -0.1 337.17 -0.05 C338.75 -0.03 338.75 -0.03 340.37 -0.01 C341.51 0.01 342.65 0.03 343.82 0.05 C345 0.07 346.17 0.09 347.39 0.11 C349.88 0.15 352.37 0.19 354.86 0.24 C358.65 0.31 362.45 0.37 366.25 0.42 C368.67 0.46 371.09 0.51 373.51 0.55 C375.21 0.57 375.21 0.57 376.94 0.6 C385.54 0.78 392.61 2.32 400.69 5.38 C401.76 5.77 402.84 6.17 403.95 6.59 C407.09 8.04 409.37 9.77 412 12 C413.39 12.8 413.39 12.8 414.81 13.62 C419.44 17.07 422.59 21.39 426 26 C426.83 27.1 426.83 27.1 427.67 28.23 C434.95 38.51 439.33 50.42 439.25 63.05 C439.26 64.21 439.26 64.21 439.26 65.4 C439.27 67.98 439.27 70.56 439.26 73.15 C439.26 75.02 439.27 76.9 439.27 78.77 C439.28 83.92 439.28 89.06 439.28 94.21 C439.27 99.76 439.28 105.31 439.29 110.86 C439.3 121.73 439.3 132.6 439.3 143.48 C439.3 152.32 439.3 161.16 439.31 170 C439.31 171.25 439.31 172.51 439.31 173.81 C439.31 176.36 439.31 178.92 439.31 181.47 C439.32 198.64 439.32 215.8 439.32 232.96 C439.32 233.63 439.32 234.3 439.32 234.99 C439.32 238.39 439.32 241.79 439.32 245.19 C439.32 245.87 439.32 246.54 439.32 247.24 C439.32 248.6 439.32 249.97 439.32 251.34 C439.31 272.58 439.32 293.82 439.34 315.06 C439.36 338.94 439.37 362.82 439.36 386.69 C439.36 399.33 439.36 411.97 439.38 424.61 C439.39 435.37 439.39 446.13 439.38 456.89 C439.37 462.38 439.37 467.86 439.38 473.35 C439.4 478.38 439.39 483.41 439.38 488.44 C439.38 490.25 439.38 492.07 439.39 493.88 C439.44 507.24 439.15 519.8 431 531 C430.55 531.8 430.09 532.61 429.62 533.44 C426.19 538.86 422.47 544.48 417 548 C416.34 548 415.68 548 415 548 C415 548.99 415 549.98 415 551 C414.07 551.43 413.14 551.87 412.19 552.31 C409.11 553.72 409.11 553.72 407.59 555.48 C405.64 557.34 403.83 558.09 401.31 559.06 C400.5 559.38 399.7 559.7 398.86 560.04 C391.87 562.39 385.79 563.29 378.45 563.25 C377.52 563.25 376.58 563.26 375.62 563.26 C372.49 563.27 369.36 563.26 366.23 563.25 C363.96 563.26 361.69 563.26 359.42 563.26 C353.19 563.27 346.95 563.27 340.72 563.26 C334.69 563.26 328.65 563.26 322.62 563.27 C309.52 563.28 296.42 563.28 283.32 563.27 C271.86 563.27 260.4 563.27 248.93 563.27 C248.17 563.27 247.41 563.27 246.63 563.27 C243.54 563.27 240.45 563.27 237.36 563.27 C208.4 563.28 179.44 563.27 150.48 563.26 C124.75 563.25 99.03 563.25 73.3 563.26 C44.39 563.27 15.49 563.28 -13.42 563.27 C-16.5 563.27 -19.58 563.27 -22.66 563.27 C-23.42 563.27 -24.18 563.27 -24.96 563.27 C-36.42 563.26 -47.87 563.27 -59.33 563.27 C-72.36 563.28 -85.39 563.28 -98.41 563.27 C-105.06 563.26 -111.71 563.26 -118.36 563.27 C-124.44 563.27 -130.53 563.27 -136.62 563.26 C-138.82 563.26 -141.02 563.26 -143.22 563.26 C-146.22 563.27 -149.21 563.26 -152.2 563.25 C-153.48 563.26 -153.48 563.26 -154.79 563.27 C-170.1 563.17 -183.74 557.44 -195 547 C-196.79 545.07 -198.37 543.08 -200 541 C-200.87 540.17 -201.73 539.35 -202.62 538.5 C-205.45 535.52 -208 532.26 -208 528 C-208.99 527.67 -209.98 527.34 -211 527 C-212.13 524.3 -212.13 524.3 -213.12 520.88 C-213.46 519.76 -213.79 518.64 -214.13 517.49 C-215.65 511.38 -216.15 505.45 -216.13 499.17 C-216.14 498.41 -216.14 497.65 -216.14 496.86 C-216.15 494.32 -216.15 491.77 -216.15 489.22 C-216.15 487.37 -216.15 485.53 -216.16 483.68 C-216.17 478.61 -216.17 473.53 -216.17 468.46 C-216.18 462.99 -216.19 457.52 -216.2 452.05 C-216.22 438.83 -216.23 425.62 -216.24 412.41 C-216.24 406.18 -216.25 399.95 -216.25 393.73 C-216.27 373.03 -216.28 352.33 -216.29 331.63 C-216.29 330.29 -216.29 328.95 -216.29 327.61 C-216.29 326.95 -216.29 326.29 -216.29 325.6 C-216.29 322.24 -216.29 318.88 -216.3 315.52 C-216.3 314.85 -216.3 314.18 -216.3 313.5 C-216.3 291.88 -216.33 270.26 -216.36 248.64 C-216.39 225.77 -216.41 202.89 -216.42 180.02 C-216.42 167.55 -216.43 155.09 -216.45 142.63 C-216.48 132.02 -216.48 121.4 -216.47 110.79 C-216.47 105.38 -216.47 99.97 -216.49 94.55 C-216.51 89.59 -216.51 84.63 -216.49 79.67 C-216.49 77.88 -216.49 76.09 -216.51 74.31 C-216.6 58.9 -215.25 41.39 -205 29 C-204.07 27.55 -204.07 27.55 -203.12 26.06 C-194.8 14.07 -183.37 7.71 -170 3 C-169.24 2.65 -168.47 2.3 -167.68 1.94 C-164.53 0.84 -162.01 0.75 -158.67 0.76 C-156.78 0.75 -156.78 0.75 -154.85 0.75 C-153.49 0.75 -152.13 0.76 -150.77 0.77 C-149.36 0.77 -147.96 0.77 -146.56 0.77 C-143.62 0.77 -140.69 0.78 -137.76 0.79 C-134 0.81 -130.23 0.82 -126.47 0.81 C-123.57 0.81 -120.68 0.82 -117.79 0.83 C-116.4 0.83 -115.01 0.83 -113.62 0.83 C-111.69 0.84 -109.75 0.84 -107.82 0.85 C-106.72 0.86 -105.61 0.86 -104.48 0.87 C-102 1 -102 1 -101 2 C-100.88 5.03 -100.81 8.05 -100.79 11.08 C-100.76 12.98 -100.73 14.89 -100.7 16.79 C-100.66 19.78 -100.63 22.78 -100.6 25.78 C-100.44 42.06 -100.24 55.2 -89 68 C-87.08 69.86 -85.15 71.39 -83 73 C-82.32 73.72 -81.64 74.44 -80.94 75.19 C-78.76 77.22 -76.81 78.06 -74 79 C-74 79.66 -74 80.32 -74 81 C-73.3 81.13 -72.61 81.27 -71.89 81.4 C-69.92 81.81 -67.97 82.26 -66.02 82.75 C-55.22 85.48 -46.79 85.43 -36 83 C-34 82.66 -32 82.32 -30 82 C-29.67 81.01 -29.34 80.02 -29 79 C-27.37 78.05 -25.74 77.1 -24.09 76.19 C-12.86 69.8 -7.53 60.56 -3.92 48.35 C-2.79 43.68 -2.69 39.14 -2.66 34.36 C-2.63 33.02 -2.63 33.02 -2.61 31.65 C-2.55 27.87 -2.51 24.09 -2.47 20.3 C-2.43 17.53 -2.39 14.75 -2.34 11.98 C-2.34 11.12 -2.33 10.27 -2.33 9.39 C-2.23 3.34 -2.23 3.34 0 0 Z M-160 132 C-160.1 134.01 -160.13 136.02 -160.13 138.02 C-160.13 139.34 -160.13 140.66 -160.13 142.02 C-160.13 143.5 -160.13 144.98 -160.13 146.46 C-160.13 148.02 -160.13 149.58 -160.13 151.14 C-160.14 155.45 -160.13 159.75 -160.13 164.06 C-160.13 168.69 -160.13 173.33 -160.13 177.96 C-160.14 187.05 -160.14 196.14 -160.14 205.23 C-160.13 212.61 -160.13 220 -160.13 227.38 C-160.13 228.43 -160.13 229.48 -160.13 230.56 C-160.13 232.69 -160.13 234.82 -160.14 236.95 C-160.14 256.95 -160.13 276.94 -160.13 296.94 C-160.12 314.12 -160.13 331.3 -160.13 348.48 C-160.14 368.4 -160.14 388.33 -160.13 408.25 C-160.13 410.37 -160.13 412.5 -160.13 414.62 C-160.13 415.66 -160.13 416.71 -160.13 417.78 C-160.13 425.16 -160.13 432.54 -160.14 439.92 C-160.14 448.91 -160.14 457.89 -160.13 466.88 C-160.13 471.47 -160.13 476.06 -160.13 480.65 C-160.14 484.84 -160.13 489.03 -160.13 493.23 C-160.13 494.75 -160.13 496.28 -160.13 497.8 C-160.13 499.86 -160.13 501.92 -160.13 503.98 C-160.13 505.12 -160.13 506.27 -160.13 507.45 C-160.29 509.93 -160.29 509.93 -159 511 C-156.13 511.1 -153.28 511.13 -150.41 511.12 C-149.04 511.12 -149.04 511.12 -147.64 511.13 C-144.52 511.13 -141.41 511.12 -138.3 511.12 C-136.07 511.12 -133.83 511.12 -131.59 511.12 C-125.42 511.13 -119.24 511.12 -113.06 511.12 C-107.09 511.11 -101.13 511.11 -95.16 511.11 C-82.94 511.12 -70.73 511.11 -58.52 511.11 C-46.42 511.1 -34.32 511.1 -22.22 511.09 C-21.47 511.09 -20.72 511.09 -19.95 511.09 C-16.13 511.09 -12.31 511.09 -8.5 511.09 C18.55 511.09 45.6 511.08 72.64 511.08 C98.92 511.07 125.21 511.06 151.49 511.05 C152.3 511.05 153.11 511.05 153.94 511.05 C162.07 511.05 170.2 511.05 178.33 511.05 C194.9 511.05 211.46 511.05 228.02 511.04 C229.17 511.04 229.17 511.04 230.33 511.04 C281.22 511.03 332.11 511.02 383 511 C384.39 508.23 384.12 505.99 384.12 502.88 C384.13 501.57 384.13 500.25 384.13 498.9 C384.13 497.43 384.12 495.96 384.12 494.49 C384.12 492.93 384.12 491.38 384.12 489.83 C384.13 485.54 384.12 481.26 384.12 476.98 C384.11 472.37 384.11 467.76 384.11 463.14 C384.11 455.15 384.11 447.15 384.11 439.15 C384.1 427.59 384.09 416.03 384.09 404.47 C384.09 385.72 384.08 366.96 384.08 348.2 C384.07 329.98 384.06 311.76 384.05 293.53 C384.05 292.41 384.05 291.29 384.05 290.13 C384.05 284.5 384.05 278.87 384.05 273.24 C384.04 226.49 384.02 179.75 384 133 C383.34 133 382.68 133 382 133 C382 132.34 382 131.68 382 131 C330.44 130.98 278.87 130.97 227.31 130.96 C226.55 130.96 225.79 130.96 225 130.96 C208.43 130.95 191.86 130.95 175.29 130.95 C167.17 130.95 159.04 130.95 150.91 130.95 C150.11 130.94 149.3 130.94 148.46 130.94 C122.23 130.94 96 130.93 69.77 130.92 C42.82 130.91 15.88 130.91 -11.07 130.91 C-14.87 130.91 -18.67 130.91 -22.47 130.91 C-23.22 130.91 -23.97 130.9 -24.74 130.9 C-36.81 130.9 -48.88 130.9 -60.95 130.89 C-73.07 130.89 -85.19 130.89 -97.3 130.89 C-103.88 130.89 -110.45 130.89 -117.02 130.88 C-123.03 130.88 -129.03 130.88 -135.04 130.88 C-137.22 130.88 -139.4 130.88 -141.59 130.88 C-144.53 130.87 -147.48 130.87 -150.43 130.88 C-151.29 130.87 -152.16 130.87 -153.05 130.87 C-156.83 130.51 -156.83 130.51 -160 132 Z " fill="#F9FCFE" transform="translate(521,408)"/>
<path d="M0 0 C1.64 -0.01 1.64 -0.01 3.31 -0.01 C4.52 -0.01 5.73 -0.01 6.97 -0.01 C8.24 -0.01 9.5 -0.02 10.81 -0.02 C14.29 -0.03 17.76 -0.03 21.24 -0.03 C24.14 -0.03 27.04 -0.04 29.94 -0.04 C36.79 -0.05 43.63 -0.05 50.47 -0.05 C57.53 -0.05 64.6 -0.06 71.66 -0.08 C77.72 -0.09 83.78 -0.1 89.84 -0.1 C93.46 -0.09 97.08 -0.1 100.7 -0.11 C104.74 -0.12 108.78 -0.12 112.81 -0.11 C114.02 -0.11 115.23 -0.12 116.47 -0.13 C117.57 -0.12 118.66 -0.12 119.79 -0.11 C121.22 -0.11 121.22 -0.11 122.68 -0.12 C124.96 0.13 124.96 0.13 126.96 2.13 C127.15 4.71 127.22 7.18 127.2 9.76 C127.2 10.55 127.2 11.34 127.21 12.15 C127.21 14.76 127.2 17.37 127.19 19.98 C127.19 21.79 127.19 23.59 127.19 25.4 C127.19 29.2 127.18 32.99 127.16 36.78 C127.15 41.65 127.14 46.52 127.14 51.39 C127.14 55.12 127.14 58.86 127.13 62.6 C127.13 64.39 127.13 66.19 127.12 67.98 C127.12 70.49 127.11 73 127.1 75.5 C127.1 76.25 127.1 77 127.1 77.77 C127.07 82.9 127.07 82.9 125.96 85.13 C83.06 85.13 40.16 85.13 -4.04 85.13 C-5.59 82.05 -5.23 78.78 -5.26 75.4 C-5.27 74.6 -5.29 73.8 -5.3 72.98 C-5.33 70.33 -5.36 67.68 -5.39 65.04 C-5.42 63.2 -5.44 61.37 -5.46 59.54 C-5.51 55.69 -5.56 51.85 -5.6 48 C-5.65 43.06 -5.72 38.13 -5.78 33.19 C-5.83 29.4 -5.88 25.62 -5.92 21.83 C-5.95 20.01 -5.97 18.19 -5.99 16.36 C-6.03 13.82 -6.05 11.28 -6.08 8.74 C-6.09 7.98 -6.1 7.22 -6.11 6.44 C-6.13 4.67 -6.09 2.9 -6.04 1.13 C-4.36 -0.54 -2.3 0 0 0 Z " fill="#F8FBFD" transform="translate(745.0420989990234,805.8662872314453)"/>
<path d="M0 0 C16.92 -0.05 33.83 -0.08 50.75 -0.1 C58.6 -0.11 66.45 -0.13 74.31 -0.15 C81.15 -0.17 87.99 -0.18 94.84 -0.19 C98.46 -0.19 102.09 -0.2 105.71 -0.21 C109.76 -0.23 113.8 -0.23 117.84 -0.23 C119.05 -0.23 120.26 -0.24 121.5 -0.25 C122.6 -0.25 123.69 -0.24 124.82 -0.24 C125.78 -0.24 126.74 -0.24 127.72 -0.25 C130 0 130 0 132 2 C132.19 4.61 132.26 7.12 132.24 9.74 C132.24 10.54 132.25 11.34 132.25 12.16 C132.25 14.8 132.24 17.45 132.23 20.1 C132.23 21.93 132.23 23.76 132.23 25.6 C132.23 29.44 132.22 33.29 132.21 37.13 C132.19 42.07 132.18 47.01 132.19 51.95 C132.19 55.73 132.18 59.52 132.17 63.3 C132.17 65.13 132.17 66.95 132.17 68.77 C132.16 71.31 132.16 73.85 132.15 76.39 C132.15 77.15 132.15 77.91 132.15 78.69 C132.11 83.89 132.11 83.89 131 85 C129.32 85.1 127.63 85.12 125.94 85.12 C124.3 85.12 124.3 85.12 122.63 85.12 C121.41 85.12 120.2 85.12 118.95 85.11 C117.05 85.11 117.05 85.11 115.11 85.11 C111.62 85.11 108.14 85.11 104.65 85.1 C101.01 85.1 97.37 85.09 93.73 85.09 C86.83 85.09 79.93 85.08 73.03 85.07 C65.18 85.06 57.32 85.06 49.47 85.05 C33.31 85.04 17.16 85.02 1 85 C-0.56 81.88 -0.13 78.57 -0.11 75.15 C-0.11 74.34 -0.11 73.53 -0.11 72.7 C-0.11 70.02 -0.11 67.33 -0.1 64.65 C-0.1 62.79 -0.09 60.93 -0.09 59.07 C-0.09 54.18 -0.08 49.28 -0.07 44.39 C-0.06 39.39 -0.05 34.4 -0.05 29.41 C-0.04 19.6 -0.02 9.8 0 0 Z " fill="#F9FCFE" transform="translate(740,570)"/>
<path d="M0 0 C16.92 -0.05 33.83 -0.08 50.75 -0.1 C58.6 -0.11 66.45 -0.13 74.31 -0.15 C81.15 -0.17 87.99 -0.18 94.84 -0.19 C98.46 -0.19 102.09 -0.2 105.71 -0.21 C109.76 -0.23 113.8 -0.23 117.84 -0.23 C119.05 -0.23 120.26 -0.24 121.5 -0.25 C122.6 -0.25 123.69 -0.24 124.82 -0.24 C125.78 -0.24 126.74 -0.24 127.72 -0.25 C130 0 130 0 132 2 C132.19 4.62 132.25 7.13 132.23 9.75 C132.23 10.55 132.23 11.35 132.23 12.18 C132.23 14.83 132.21 17.48 132.2 20.13 C132.19 21.97 132.19 23.8 132.19 25.64 C132.18 30.48 132.16 35.31 132.14 40.15 C132.12 45.08 132.11 50.02 132.1 54.95 C132.08 64.63 132.04 74.32 132 84 C128.99 85 126.98 85.13 123.83 85.14 C122.23 85.15 122.23 85.15 120.59 85.16 C119.42 85.16 118.24 85.16 117.03 85.16 C115.8 85.17 114.56 85.17 113.29 85.18 C109.9 85.19 106.51 85.2 103.12 85.2 C101 85.2 98.88 85.21 96.77 85.21 C90.15 85.23 83.53 85.24 76.91 85.24 C69.26 85.24 61.61 85.26 53.96 85.29 C48.05 85.31 42.14 85.32 36.23 85.32 C32.7 85.32 29.17 85.33 25.64 85.35 C21.71 85.37 17.77 85.36 13.84 85.36 C12.66 85.37 11.49 85.37 10.28 85.38 C9.21 85.38 8.14 85.37 7.04 85.37 C5.65 85.37 5.65 85.37 4.22 85.37 C3.49 85.25 2.76 85.13 2 85 C-0.48 81.28 -0.27 78.44 -0.23 74.13 C-0.23 73.33 -0.23 72.53 -0.23 71.71 C-0.23 69.06 -0.21 66.42 -0.2 63.77 C-0.19 61.94 -0.19 60.1 -0.19 58.27 C-0.18 53.44 -0.16 48.61 -0.14 43.78 C-0.12 38.86 -0.11 33.93 -0.1 29 C-0.08 19.33 -0.04 9.67 0 0 Z " fill="#F8FBFD" transform="translate(740,688)"/>
<path d="M0 0 C16.92 -0.05 33.83 -0.08 50.75 -0.1 C58.6 -0.11 66.45 -0.13 74.31 -0.15 C81.15 -0.17 87.99 -0.18 94.84 -0.19 C98.46 -0.19 102.09 -0.2 105.71 -0.21 C109.76 -0.23 113.8 -0.23 117.84 -0.23 C119.05 -0.23 120.26 -0.24 121.5 -0.25 C122.6 -0.25 123.69 -0.24 124.82 -0.24 C125.78 -0.24 126.74 -0.24 127.72 -0.25 C130 0 130 0 132 2 C132.2 4.58 132.27 7.05 132.26 9.63 C132.26 10.81 132.26 10.81 132.27 12.02 C132.28 14.63 132.27 17.23 132.27 19.84 C132.27 21.65 132.27 23.46 132.27 25.27 C132.27 29.06 132.27 32.85 132.26 36.65 C132.25 41.52 132.26 46.39 132.27 51.26 C132.28 54.99 132.27 58.73 132.27 62.46 C132.27 64.26 132.27 66.05 132.27 67.85 C132.28 70.36 132.27 72.86 132.26 75.37 C132.26 76.12 132.27 76.86 132.27 77.63 C132.23 82.77 132.23 82.77 130 85 C127.76 85.25 127.76 85.25 124.91 85.26 C123.84 85.27 122.76 85.27 121.65 85.28 C120.46 85.28 119.28 85.28 118.05 85.27 C116.81 85.28 115.56 85.28 114.28 85.29 C110.86 85.3 107.44 85.3 104.02 85.3 C101.16 85.3 98.31 85.31 95.46 85.31 C88.73 85.32 82 85.32 75.27 85.32 C68.32 85.31 61.37 85.32 54.42 85.34 C48.46 85.36 42.5 85.37 36.54 85.36 C32.98 85.36 29.42 85.36 25.86 85.38 C21.89 85.39 17.92 85.38 13.95 85.37 C12.76 85.38 11.57 85.39 10.35 85.4 C9.27 85.39 8.2 85.38 7.09 85.37 C5.68 85.37 5.68 85.37 4.24 85.37 C3.13 85.19 3.13 85.19 2 85 C-0.48 81.28 -0.27 78.44 -0.23 74.13 C-0.23 73.33 -0.23 72.53 -0.23 71.71 C-0.23 69.06 -0.21 66.42 -0.2 63.77 C-0.19 61.94 -0.19 60.1 -0.19 58.27 C-0.18 53.44 -0.16 48.61 -0.14 43.78 C-0.12 38.86 -0.11 33.93 -0.1 29 C-0.08 19.33 -0.04 9.67 0 0 Z " fill="#F9FCFE" transform="translate(567,688)"/>
<path d="M0 0 C1.07 -0.01 2.14 -0.01 3.24 -0.02 C4.41 -0.01 5.58 -0.01 6.79 0 C8.02 -0 9.26 -0.01 10.53 -0.01 C13.92 -0.02 17.3 -0.01 20.69 0 C24.23 0.02 27.77 0.01 31.31 0.01 C37.26 0.01 43.21 0.02 49.16 0.04 C56.04 0.06 62.92 0.06 69.8 0.06 C76.41 0.05 83.03 0.06 89.64 0.07 C92.46 0.07 95.28 0.07 98.09 0.07 C102.02 0.07 105.96 0.08 109.89 0.1 C111.64 0.1 111.64 0.1 113.44 0.09 C115.04 0.1 115.04 0.1 116.68 0.11 C118.07 0.12 118.07 0.12 119.49 0.12 C121.84 0.37 121.84 0.37 124.84 2.37 C125.13 5.03 125.23 7.45 125.19 10.11 C125.2 10.91 125.2 11.71 125.2 12.53 C125.2 15.18 125.19 17.83 125.17 20.47 C125.16 22.31 125.16 24.14 125.16 25.97 C125.16 29.82 125.14 33.66 125.12 37.5 C125.09 42.44 125.08 47.38 125.08 52.32 C125.07 56.11 125.06 59.89 125.05 63.68 C125.04 65.5 125.04 67.32 125.04 69.14 C125.03 71.68 125.01 74.22 125 76.77 C125 77.53 125 78.29 125 79.07 C124.95 84.26 124.95 84.26 123.84 85.37 C122.17 85.47 120.49 85.5 118.82 85.49 C117.73 85.5 116.65 85.5 115.53 85.5 C114.32 85.5 113.12 85.49 111.88 85.49 C110.62 85.49 109.37 85.49 108.07 85.49 C104.61 85.49 101.15 85.48 97.69 85.48 C94.07 85.47 90.46 85.47 86.85 85.47 C80 85.46 73.16 85.46 66.31 85.45 C58.52 85.44 50.73 85.43 42.94 85.42 C26.9 85.41 10.87 85.4 -5.16 85.37 C-5.16 84.71 -5.16 84.05 -5.16 83.37 C-5.82 83.37 -6.48 83.37 -7.16 83.37 C-7.36 73 -7.55 62.62 -7.71 52.24 C-7.78 47.42 -7.87 42.6 -7.96 37.78 C-8.05 33.13 -8.13 28.48 -8.19 23.83 C-8.22 22.06 -8.26 20.28 -8.29 18.51 C-8.35 16.02 -8.38 13.54 -8.41 11.06 C-8.43 10.32 -8.45 9.58 -8.47 8.82 C-8.5 3.86 -8.5 3.86 -6.96 1.69 C-4.54 -0.08 -2.99 -0 0 0 Z " fill="#F9FCFE" transform="translate(574.1619873046875,805.6257781982422)"/>
<path d="M0 0 C16.77 -0.09 33.54 -0.16 50.3 -0.21 C58.09 -0.23 65.87 -0.26 73.66 -0.3 C80.44 -0.34 87.23 -0.37 94.01 -0.38 C97.61 -0.38 101.2 -0.39 104.79 -0.42 C108.8 -0.46 112.81 -0.46 116.82 -0.45 C118.01 -0.47 119.21 -0.48 120.44 -0.5 C121.53 -0.49 122.62 -0.49 123.74 -0.48 C124.69 -0.48 125.64 -0.49 126.62 -0.49 C129 0 129 0 130.81 1.81 C132.57 5.05 132.4 8.19 132.36 11.78 C132.36 12.56 132.36 13.34 132.36 14.14 C132.37 16.71 132.35 19.28 132.33 21.86 C132.33 23.64 132.32 25.43 132.32 27.21 C132.32 30.95 132.3 34.69 132.28 38.43 C132.25 43.23 132.24 48.03 132.24 52.83 C132.23 56.52 132.22 60.2 132.21 63.89 C132.21 65.66 132.2 67.43 132.2 69.2 C132.19 71.67 132.18 74.14 132.16 76.61 C132.16 77.34 132.16 78.08 132.16 78.84 C132.11 83.89 132.11 83.89 131 85 C129.32 85.1 127.63 85.12 125.94 85.12 C124.3 85.12 124.3 85.12 122.63 85.12 C121.41 85.12 120.2 85.12 118.95 85.11 C117.05 85.11 117.05 85.11 115.11 85.11 C111.62 85.11 108.14 85.11 104.65 85.1 C101.01 85.1 97.37 85.09 93.73 85.09 C86.83 85.09 79.93 85.08 73.03 85.07 C65.18 85.06 57.32 85.06 49.47 85.05 C33.31 85.04 17.16 85.02 1 85 C-0.56 81.88 -0.13 78.57 -0.11 75.15 C-0.11 74.34 -0.11 73.53 -0.11 72.7 C-0.11 70.02 -0.11 67.33 -0.1 64.65 C-0.1 62.79 -0.09 60.93 -0.09 59.07 C-0.09 54.18 -0.08 49.28 -0.07 44.39 C-0.06 39.39 -0.05 34.4 -0.05 29.41 C-0.04 19.6 -0.02 9.8 0 0 Z " fill="#F9FCFE" transform="translate(567,570)"/>
<path d="M0 0 C1.09 -0 2.18 -0.01 3.31 -0.01 C4.51 -0.01 5.72 -0.01 6.96 -0.01 C8.23 -0.01 9.49 -0.02 10.79 -0.02 C14.27 -0.03 17.74 -0.03 21.22 -0.03 C24.12 -0.03 27.01 -0.04 29.91 -0.04 C36.75 -0.05 43.58 -0.05 50.42 -0.05 C57.48 -0.05 64.53 -0.06 71.59 -0.08 C77.64 -0.09 83.7 -0.1 89.75 -0.1 C93.37 -0.09 96.98 -0.1 100.6 -0.11 C104.64 -0.12 108.67 -0.12 112.71 -0.11 C114.51 -0.12 114.51 -0.12 116.35 -0.13 C118 -0.12 118 -0.12 119.68 -0.11 C120.63 -0.11 121.58 -0.11 122.57 -0.12 C124.96 0.13 124.96 0.13 127.96 2.13 C127.63 2.46 127.3 2.79 126.96 3.13 C126.87 5.62 126.85 8.07 126.87 10.56 C126.87 11.34 126.87 12.11 126.87 12.91 C126.88 14.61 126.88 16.3 126.89 17.99 C126.9 20.67 126.91 23.35 126.91 26.02 C126.93 32.67 126.95 39.32 126.98 45.97 C126.99 51.58 127.01 57.2 127.02 62.81 C127.03 65.45 127.04 68.09 127.05 70.74 C127.06 72.35 127.06 73.96 127.06 75.58 C127.07 76.32 127.07 77.06 127.08 77.82 C127.08 82.91 127.08 82.91 125.96 85.13 C83.06 85.13 40.16 85.13 -4.04 85.13 C-5.58 82.05 -5.22 78.78 -5.26 75.4 C-5.27 74.6 -5.28 73.8 -5.29 72.98 C-5.33 70.33 -5.36 67.68 -5.39 65.04 C-5.41 63.2 -5.43 61.37 -5.46 59.54 C-5.51 55.69 -5.55 51.85 -5.59 48 C-5.65 43.06 -5.71 38.13 -5.78 33.19 C-5.83 29.4 -5.87 25.62 -5.92 21.83 C-5.94 20.01 -5.96 18.19 -5.99 16.36 C-6.02 13.82 -6.05 11.28 -6.07 8.74 C-6.08 7.98 -6.1 7.22 -6.11 6.44 C-6.12 4.67 -6.08 2.9 -6.04 1.13 C-4.36 -0.54 -2.3 0 0 0 Z " fill="#F9FCFE" transform="translate(399.0353698730469,569.8662872314453)"/>
<path d="M0 0 C16.92 -0.05 33.83 -0.08 50.75 -0.1 C58.6 -0.11 66.45 -0.13 74.31 -0.15 C81.15 -0.17 87.99 -0.18 94.84 -0.19 C98.46 -0.19 102.09 -0.2 105.71 -0.21 C109.76 -0.23 113.8 -0.23 117.84 -0.23 C119.05 -0.23 120.26 -0.24 121.5 -0.25 C122.6 -0.25 123.69 -0.24 124.82 -0.24 C125.78 -0.24 126.74 -0.24 127.72 -0.25 C130 0 130 0 132 2 C132.19 4.62 132.25 7.13 132.23 9.75 C132.23 10.55 132.23 11.35 132.23 12.18 C132.23 14.83 132.21 17.48 132.2 20.13 C132.19 21.97 132.19 23.8 132.19 25.64 C132.18 30.48 132.16 35.31 132.14 40.15 C132.12 45.08 132.11 50.02 132.1 54.95 C132.08 64.63 132.04 74.32 132 84 C129.47 85.27 127.71 85.13 124.88 85.13 C123.79 85.14 122.71 85.14 121.59 85.15 C119.79 85.15 119.79 85.15 117.96 85.15 C116.71 85.15 115.45 85.15 114.16 85.16 C110.71 85.16 107.26 85.17 103.81 85.17 C100.94 85.17 98.06 85.17 95.19 85.18 C88.41 85.18 81.63 85.19 74.84 85.19 C67.84 85.18 60.84 85.2 53.83 85.21 C47.83 85.22 41.82 85.23 35.81 85.23 C32.22 85.23 28.63 85.23 25.04 85.24 C21.04 85.25 17.04 85.25 13.04 85.24 C11.84 85.25 10.65 85.25 9.41 85.26 C8.33 85.26 7.24 85.25 6.12 85.25 C5.18 85.25 4.23 85.25 3.26 85.25 C1 85 1 85 -1 83 C-1.16 80.35 -1.19 77.8 -1.14 75.15 C-1.13 74.34 -1.12 73.53 -1.11 72.7 C-1.07 70.02 -1.02 67.33 -0.98 64.65 C-0.95 62.79 -0.93 60.93 -0.9 59.07 C-0.83 54.18 -0.76 49.28 -0.67 44.39 C-0.59 39.39 -0.52 34.4 -0.45 29.41 C-0.31 19.6 -0.16 9.8 0 0 Z " fill="#F9FCFE" transform="translate(394,688)"/>
<path d="M0 0 C1.09 -0.01 2.18 -0.01 3.31 -0.02 C4.52 -0.02 5.73 -0.02 6.97 -0.02 C8.87 -0.03 8.87 -0.03 10.81 -0.04 C14.29 -0.05 17.76 -0.06 21.24 -0.06 C23.42 -0.06 25.59 -0.07 27.76 -0.07 C34.55 -0.08 41.33 -0.09 48.12 -0.1 C55.97 -0.1 63.82 -0.12 71.66 -0.15 C77.72 -0.17 83.78 -0.18 89.84 -0.18 C93.46 -0.18 97.08 -0.19 100.7 -0.21 C104.74 -0.23 108.78 -0.22 112.81 -0.22 C114.02 -0.23 115.23 -0.23 116.47 -0.24 C118.11 -0.24 118.11 -0.24 119.79 -0.23 C120.74 -0.23 121.7 -0.23 122.68 -0.23 C123.43 -0.11 124.18 0.01 124.96 0.14 C127.43 3.84 127.23 6.64 127.18 10.92 C127.19 11.71 127.19 12.5 127.19 13.31 C127.18 15.93 127.17 18.54 127.15 21.15 C127.15 22.96 127.15 24.78 127.14 26.59 C127.14 31.36 127.12 36.13 127.1 40.89 C127.07 45.76 127.07 50.63 127.06 55.49 C127.03 65.04 127 74.59 126.96 84.14 C123.93 85.15 121.91 85.26 118.74 85.26 C117.66 85.26 116.58 85.26 115.46 85.26 C114.28 85.26 113.09 85.26 111.87 85.25 C110.62 85.25 109.37 85.25 108.08 85.25 C104.66 85.25 101.23 85.25 97.81 85.24 C94.23 85.24 90.65 85.23 87.07 85.23 C80.29 85.23 73.51 85.22 66.73 85.21 C59.02 85.2 51.3 85.2 43.58 85.19 C27.71 85.18 11.83 85.16 -4.04 85.14 C-5.59 82.05 -5.23 78.79 -5.26 75.4 C-5.27 74.6 -5.29 73.8 -5.3 72.98 C-5.33 70.34 -5.36 67.69 -5.39 65.04 C-5.42 63.21 -5.44 61.38 -5.46 59.54 C-5.51 55.7 -5.56 51.85 -5.6 48.01 C-5.65 43.07 -5.72 38.13 -5.78 33.19 C-5.83 29.41 -5.88 25.62 -5.92 21.84 C-5.95 20.01 -5.97 18.19 -5.99 16.37 C-6.03 13.83 -6.05 11.29 -6.08 8.75 C-6.09 7.99 -6.1 7.23 -6.11 6.45 C-6.13 4.68 -6.09 2.91 -6.04 1.14 C-4.36 -0.54 -2.3 0.01 0 0 Z " fill="#F9FCFE" transform="translate(399.04209899902344,805.8595581054688)"/>
<path d="M0 0 C2.19 1.88 2.19 1.88 4 4 C4.78 4.7 5.57 5.4 6.38 6.12 C13.49 13.92 16.14 20.83 16.18 31.21 C16.19 32.44 16.19 32.44 16.2 33.71 C16.22 36.43 16.23 39.16 16.24 41.89 C16.24 42.82 16.25 43.75 16.25 44.72 C16.27 49.66 16.29 54.61 16.3 59.55 C16.31 64.64 16.34 69.74 16.38 74.83 C16.41 78.76 16.41 82.69 16.42 86.61 C16.42 88.49 16.43 90.37 16.45 92.24 C16.62 110.28 16.62 110.28 12 118 C11.67 118.66 11.34 119.32 11 120 C10.34 120 9.68 120 9 120 C8.92 120.62 8.83 121.24 8.75 121.88 C8 124 8 124 6.06 125.12 C5.04 125.56 5.04 125.56 4 126 C3.34 126.66 2.68 127.32 2 128 C1.01 128 0.02 128 -1 128 C-1.33 128.99 -1.66 129.98 -2 131 C-2 130.34 -2 129.68 -2 129 C-2.66 129 -3.32 129 -4 129 C-4 129.66 -4 130.32 -4 131 C-11.51 134.16 -19.2 133.89 -26.76 131.05 C-32.41 128.4 -37.32 125.77 -40 120 C-40.82 119.28 -41.65 118.56 -42.5 117.81 C-47.41 112.29 -47.3 104.62 -47.27 97.5 C-47.28 96.71 -47.28 95.91 -47.29 95.09 C-47.3 92.49 -47.3 89.88 -47.3 87.28 C-47.3 85.45 -47.31 83.63 -47.31 81.8 C-47.32 77.99 -47.32 74.17 -47.32 70.35 C-47.31 65.48 -47.33 60.61 -47.35 55.74 C-47.36 51.97 -47.37 48.2 -47.36 44.43 C-47.36 42.64 -47.37 40.84 -47.38 39.05 C-47.49 17.16 -47.49 17.16 -39 8 C-38.67 7.34 -38.34 6.68 -38 6 C-37.34 6 -36.68 6 -36 6 C-35.34 4.68 -34.68 3.36 -34 2 C-33.67 2.33 -33.34 2.66 -33 3 C-32.61 2.55 -32.22 2.09 -31.81 1.62 C-23.79 -5.57 -9.02 -4.43 0 0 Z " fill="#F9FCFE" transform="translate(484,346)"/>
<path d="M0 0 C1.46 1.36 1.46 1.36 3 3 C3.81 3.61 4.62 4.22 5.45 4.85 C8.2 7.17 9.85 9.4 11.75 12.44 C12.34 13.36 12.94 14.29 13.55 15.25 C16.27 20.41 16.16 25.59 16.18 31.32 C16.19 32.56 16.19 32.56 16.2 33.82 C16.22 36.54 16.23 39.26 16.24 41.98 C16.24 42.92 16.25 43.85 16.25 44.81 C16.27 49.75 16.29 54.69 16.3 59.63 C16.31 64.71 16.34 69.8 16.38 74.88 C16.41 78.8 16.41 82.73 16.42 86.65 C16.42 88.53 16.43 90.4 16.45 92.27 C16.64 112.23 16.64 112.23 9.71 120.85 C8.94 121.58 8.17 122.31 7.38 123.06 C6.21 124.19 6.21 124.19 5.02 125.35 C3 127 3 127 1 127 C1 127.66 1 128.32 1 129 C-8.35 132.98 -16.33 134.9 -26.02 131.05 C-31.25 128.29 -35.53 124.81 -39.75 120.69 C-40.69 119.78 -41.64 118.88 -42.61 117.95 C-47.11 112.39 -47.3 106.29 -47.27 99.44 C-47.28 98.61 -47.28 97.78 -47.29 96.93 C-47.3 94.22 -47.3 91.5 -47.3 88.79 C-47.3 86.89 -47.31 84.99 -47.31 83.09 C-47.32 79.11 -47.32 75.14 -47.32 71.17 C-47.31 66.09 -47.33 61.01 -47.35 55.93 C-47.36 52.01 -47.37 48.09 -47.36 44.17 C-47.36 42.3 -47.37 40.43 -47.38 38.56 C-47.39 35.94 -47.38 33.31 -47.37 30.69 C-47.38 29.93 -47.39 29.16 -47.4 28.38 C-47.34 22.99 -46.12 18.96 -44 14 C-43.34 14 -42.68 14 -42 14 C-41.71 13.26 -41.42 12.51 -41.12 11.75 C-40.75 10.84 -40.38 9.94 -40 9 C-39.75 8.3 -39.5 7.6 -39.25 6.88 C-37.43 4.14 -34.93 3.37 -32 2 C-31.67 1.34 -31.34 0.68 -31 0 C-21.57 -4.88 -9.52 -4.39 0 0 Z " fill="#F9FCFE" transform="translate(815,346)"/>
<path d="M0 0 C4.07 1.49 5.29 3.73 7.25 7.5 C7.77 8.48 8.29 9.46 8.83 10.47 C10 13 10 13 10 15 C7 14 7 14 5.68 11.86 C5.27 10.98 4.86 10.09 4.44 9.19 C4.02 8.31 3.61 7.44 3.18 6.54 C2.79 5.7 2.4 4.86 2 4 C1.34 2.66 0.67 1.33 0 0 Z " fill="#414143" transform="translate(947,434)"/>
<path d="M0 0 C1.59 2.39 2.65 4.31 3.69 6.94 C3.96 7.61 4.23 8.28 4.51 8.96 C5.08 11.33 4.76 12.72 4 15 C1.09 10.77 -0.02 6.98 -1 2 C-0.67 1.34 -0.34 0.68 0 0 Z " fill="#BCBFBE" transform="translate(1110,479)"/>
<path d="M0 0 C8.37 7.05 8.37 7.05 11 10 C11 10.66 11 11.32 11 12 C7.61 10.56 5.64 8.78 3.25 6 C2.64 5.3 2.02 4.6 1.39 3.88 C0 2 0 2 0 0 Z " fill="#4F5052" transform="translate(772,463)"/>
<path d="M0 0 C1.63 0.73 3.26 1.49 4.88 2.25 C5.78 2.67 6.68 3.09 7.62 3.52 C10.2 5.12 10.96 6.19 12 9 C7.69 7.43 3.94 5.32 0 3 C0 2.01 0 1.02 0 0 Z " fill="#4A4A4C" transform="translate(883,209)"/>
<path d="M0 0 C1.63 0.23 3.25 0.48 4.88 0.75 C6.23 0.96 6.23 0.96 7.62 1.17 C10 2 10 2 12 6 C6.06 4.51 6.06 4.51 0 3 C0 2.01 0 1.02 0 0 Z " fill="#BCBFBE" transform="translate(473,343)"/>
<path d="M0 0 C0.99 0.33 1.98 0.66 3 1 C3 1.66 3 2.32 3 3 C3.58 3.23 4.15 3.45 4.75 3.69 C7.57 5.33 9.08 7.4 11 10 C8 10 8 10 5.96 8.32 C5.25 7.6 4.54 6.87 3.81 6.12 C2.74 5.05 2.74 5.05 1.64 3.95 C0 2 0 2 0 0 Z " fill="#B8BBBA" transform="translate(276,1009)"/>
<path d="M0 0 C2.97 0.99 5.94 1.98 9 3 C9 3.66 9 4.32 9 5 C9.66 5.33 10.32 5.66 11 6 C6.61 5.34 3.02 3.81 -1 2 C-0.67 1.34 -0.34 0.68 0 0 Z " fill="#BDC0BF" transform="translate(453,1122)"/>
</svg>
